<?xml version="1.0" standalone="no"?>
<!DOCTYPE svg PUBLIC "-//W3C//DTD SVG 20010904//EN"
 "http://www.w3.org/TR/2001/REC-SVG-20010904/DTD/svg10.dtd">
<svg version="1.0" xmlns="http://www.w3.org/2000/svg"
 width="46.000000pt" height="49.000000pt" viewBox="0 0 46.000000 49.000000"
 preserveAspectRatio="xMidYMid meet">

<g transform="translate(0.000000,49.000000) scale(0.100000,-0.100000)"
fill="#000000" stroke="none">
<path d="M156 475 c-50 -18 -104 -69 -128 -122 -22 -49 -25 -131 -8 -189 10
-32 9 -50 -4 -99 -8 -32 -14 -60 -13 -62 2 -1 27 5 56 14 43 12 61 13 91 4
153 -46 291 46 307 204 11 102 -40 195 -129 239 -58 29 -112 33 -172 11z m153
-49 c15 -8 42 -31 59 -50 126 -144 -18 -378 -192 -312 -30 11 -57 15 -80 11
l-35 -7 10 36 c8 27 6 42 -6 65 -31 61 -9 178 41 223 54 48 146 63 203 34z"/>
<path d="M134 335 c-13 -20 -14 -30 -4 -61 26 -78 137 -152 189 -125 23 13 28
40 9 59 -16 16 -38 15 -59 -4 -15 -14 -20 -13 -53 17 -32 28 -36 36 -30 64 6
33 -9 75 -26 75 -5 0 -17 -11 -26 -25z"/>
</g>
</svg>
