<?xml version="1.0" standalone="no"?>
<!DOCTYPE svg PUBLIC "-//W3C//DTD SVG 20010904//EN"
 "http://www.w3.org/TR/2001/REC-SVG-20010904/DTD/svg10.dtd">
<svg version="1.0" xmlns="http://www.w3.org/2000/svg"
 width="46.000000pt" height="46.000000pt" viewBox="0 0 46.000000 46.000000"
 preserveAspectRatio="xMidYMid meet">

<g transform="translate(0.000000,46.000000) scale(0.100000,-0.100000)"
fill="#000000" stroke="none">
<path d="M72 440 c-61 -37 -72 -70 -72 -210 0 -140 11 -173 72 -210 28 -17 51
-20 158 -20 107 0 130 3 158 20 61 37 72 70 72 210 0 140 -11 173 -72 210 -28
17 -51 20 -158 20 -107 0 -130 -3 -158 -20z m315 -53 c28 -27 28 -29 28 -157
0 -128 0 -130 -28 -157 -27 -28 -29 -28 -157 -28 -128 0 -130 0 -157 28 -28
27 -28 29 -28 156 0 115 2 131 20 151 32 35 53 40 177 37 114 -2 119 -3 145
-30z"/>
<path d="M337 373 c-12 -12 -7 -41 7 -46 22 -9 41 19 26 38 -14 16 -23 19 -33
8z"/>
<path d="M154 306 c-28 -28 -34 -42 -34 -76 0 -57 50 -110 105 -110 72 0 115
41 115 110 0 69 -43 110 -115 110 -29 0 -45 -8 -71 -34z m124 -22 c16 -11 22
-25 22 -54 0 -65 -69 -94 -117 -48 -64 60 22 153 95 102z"/>
</g>
</svg>
